<svg width="2513" height="512" viewBox="0 0 2513 512" fill="none" xmlns="http://www.w3.org/2000/svg">
<rect width="2513" height="512" fill="white"/>
<path d="M965.071 196.543H998.193L970.964 325.171H931.34C927.14 310.676 923.482 296.519 920.367 282.702C917.386 268.884 914.541 254.118 911.832 238.403H911.426C908.31 254.118 905.194 268.884 902.078 282.702C899.098 296.519 895.711 310.676 891.918 325.171H852.293L825.064 196.543H858.186C860.218 206.026 862.047 215.306 863.673 224.382C865.298 233.459 866.856 242.738 868.346 252.221C869.972 261.568 871.598 271.729 873.223 282.702H873.63C875.662 271.729 877.626 261.568 879.523 252.221C881.419 242.738 883.383 233.459 885.416 224.382C887.448 215.306 889.615 206.026 891.918 196.543H931.34C934.455 210.903 937.503 225.263 940.484 239.622C943.599 253.982 946.647 268.342 949.628 282.702H950.034C952.608 268.342 955.114 253.982 957.553 239.622C959.991 225.263 962.497 210.903 965.071 196.543ZM1010.3 260.756C1010.3 244.364 1012.13 231.359 1015.79 221.741C1019.58 212.122 1026.02 205.213 1035.1 201.014C1044.31 196.814 1057.11 194.715 1073.5 194.715C1085.83 194.715 1096.06 195.866 1104.18 198.169C1112.31 200.472 1118.75 204.197 1123.49 209.345C1128.23 214.493 1131.55 221.334 1133.45 229.869C1135.48 238.268 1136.49 248.563 1136.49 260.756C1136.49 273.083 1135.48 283.514 1133.45 292.049C1131.55 300.448 1128.23 307.222 1123.49 312.369C1118.75 317.517 1112.31 321.243 1104.18 323.546C1096.06 325.849 1085.83 327 1073.5 327C1061.17 327 1050.95 325.849 1042.82 323.546C1034.69 321.243 1028.25 317.517 1023.51 312.369C1018.77 307.222 1015.38 300.448 1013.35 292.049C1011.32 283.514 1010.3 273.083 1010.3 260.756ZM1073.5 298.552C1082.17 298.552 1088.67 297.468 1093.01 295.3C1097.34 293.133 1100.26 289.34 1101.75 283.921C1103.24 278.367 1103.98 270.645 1103.98 260.756C1103.98 251.002 1103.24 243.416 1101.75 237.997C1100.26 232.578 1097.34 228.785 1093.01 226.617C1088.67 224.314 1082.17 223.163 1073.5 223.163C1064.97 223.163 1058.46 224.314 1053.99 226.617C1049.66 228.785 1046.68 232.578 1045.05 237.997C1043.56 243.416 1042.82 251.002 1042.82 260.756C1042.82 270.645 1043.56 278.367 1045.05 283.921C1046.68 289.34 1049.66 293.133 1053.99 295.3C1058.46 297.468 1064.97 298.552 1073.5 298.552ZM1189.36 325.171H1156.85V196.543H1218.22C1234.34 196.543 1246.06 200.201 1253.37 207.516C1260.82 214.696 1264.55 225.331 1264.55 239.419C1264.55 249.986 1261.91 259.062 1256.62 266.649C1251.34 274.099 1244.36 278.773 1235.69 280.67L1235.49 281.279C1238.88 283.447 1242.6 287.037 1246.67 292.049C1250.73 297.061 1254.73 302.548 1258.65 308.508C1262.72 314.334 1266.31 319.82 1269.42 324.968V325.171H1231.63L1209.68 292.659C1207.79 289.814 1206.23 287.782 1205.01 286.563C1203.92 285.343 1202.57 284.598 1200.94 284.327C1199.45 284.056 1197.02 283.921 1193.63 283.921H1189.36V325.171ZM1212.93 222.96H1189.36V257.504H1212.93C1219.71 257.504 1224.38 256.15 1226.95 253.44C1229.66 250.731 1231.02 246.328 1231.02 240.232C1231.02 234.136 1229.66 229.733 1226.95 227.024C1224.38 224.314 1219.71 222.96 1212.93 222.96ZM1287.82 325.171V196.543H1344.11C1355.35 196.543 1364.77 197.492 1372.35 199.388C1379.94 201.149 1386.04 204.333 1390.64 208.939C1395.25 213.545 1398.57 219.979 1400.6 228.243C1402.63 236.371 1403.65 246.87 1403.65 259.74C1403.65 273.151 1402.63 284.124 1400.6 292.659C1398.57 301.193 1395.25 307.831 1390.64 312.573C1386.04 317.314 1379.94 320.633 1372.35 322.53C1364.77 324.291 1355.35 325.171 1344.11 325.171H1287.82ZM1339.43 223.976H1320.33V297.739H1339.43C1347.29 297.739 1353.46 296.858 1357.93 295.097C1362.53 293.336 1365.78 289.746 1367.68 284.327C1369.71 278.909 1370.73 270.713 1370.73 259.74C1370.73 249.309 1369.71 241.587 1367.68 236.574C1365.78 231.427 1362.53 228.04 1357.93 226.414C1353.46 224.789 1347.29 223.976 1339.43 223.976ZM1580.78 297.332V322.936C1574.28 324.291 1567.91 325.307 1561.68 325.984C1555.45 326.661 1548.07 327 1539.53 327C1528.56 327 1519.28 326.052 1511.7 324.155C1504.24 322.259 1498.22 318.94 1493.61 314.198C1489.14 309.321 1485.89 302.48 1483.86 293.675C1481.82 284.869 1480.81 273.557 1480.81 259.74C1480.81 246.464 1481.82 235.558 1483.86 227.024C1485.89 218.489 1489.14 211.919 1493.61 207.313C1498.22 202.572 1504.24 199.32 1511.7 197.559C1519.28 195.663 1528.56 194.715 1539.53 194.715C1548.07 194.715 1555.45 195.053 1561.68 195.731C1567.91 196.272 1574.28 197.288 1580.78 198.779V225.195L1580.17 225.601C1574.48 224.247 1569 223.298 1563.72 222.757C1558.43 222.079 1551.93 221.741 1544.21 221.741C1537.98 221.741 1532.83 222.215 1528.76 223.163C1524.84 223.976 1521.72 225.669 1519.42 228.243C1517.11 230.817 1515.49 234.61 1514.54 239.622C1513.73 244.635 1513.32 251.341 1513.32 259.74C1513.32 268.545 1513.73 275.657 1514.54 281.076C1515.49 286.359 1517.11 290.356 1519.42 293.065C1521.72 295.774 1524.84 297.603 1528.76 298.552C1532.83 299.5 1537.98 299.974 1544.21 299.974C1551.79 299.974 1558.23 299.771 1563.51 299.364C1568.93 298.822 1574.35 297.874 1579.77 296.519L1580.78 297.332ZM1593.92 260.756C1593.92 244.364 1595.75 231.359 1599.41 221.741C1603.2 212.122 1609.63 205.213 1618.71 201.014C1627.92 196.814 1640.72 194.715 1657.12 194.715C1669.44 194.715 1679.67 195.866 1687.8 198.169C1695.93 200.472 1702.36 204.197 1707.1 209.345C1711.85 214.493 1715.16 221.334 1717.06 229.869C1719.09 238.268 1720.11 248.563 1720.11 260.756C1720.11 273.083 1719.09 283.514 1717.06 292.049C1715.16 300.448 1711.85 307.222 1707.1 312.369C1702.36 317.517 1695.93 321.243 1687.8 323.546C1679.67 325.849 1669.44 327 1657.12 327C1644.79 327 1634.56 325.849 1626.43 323.546C1618.3 321.243 1611.87 317.517 1607.13 312.369C1602.39 307.222 1599 300.448 1596.97 292.049C1594.94 283.514 1593.92 273.083 1593.92 260.756ZM1657.12 298.552C1665.79 298.552 1672.29 297.468 1676.62 295.3C1680.96 293.133 1683.87 289.34 1685.36 283.921C1686.85 278.367 1687.6 270.645 1687.6 260.756C1687.6 251.002 1686.85 243.416 1685.36 237.997C1683.87 232.578 1680.96 228.785 1676.62 226.617C1672.29 224.314 1665.79 223.163 1657.12 223.163C1648.58 223.163 1642.08 224.314 1637.61 226.617C1633.27 228.785 1630.29 232.578 1628.67 237.997C1627.18 243.416 1626.43 251.002 1626.43 260.756C1626.43 270.645 1627.18 278.367 1628.67 283.921C1630.29 289.34 1633.27 293.133 1637.61 295.3C1642.08 297.468 1648.58 298.552 1657.12 298.552ZM1851.82 196.543V272.338C1851.82 285.614 1850.19 296.249 1846.94 304.241C1843.83 312.234 1838.34 318.059 1830.48 321.717C1822.63 325.239 1811.52 327 1797.16 327C1782.26 327 1770.67 325.239 1762.41 321.717C1754.28 318.059 1748.59 312.234 1745.34 304.241C1742.09 296.249 1740.46 285.614 1740.46 272.338V196.543H1772.98V271.729C1772.98 278.638 1773.65 284.056 1775.01 287.985C1776.36 291.914 1778.8 294.691 1782.32 296.316C1785.85 297.806 1790.79 298.552 1797.16 298.552C1803.12 298.552 1807.66 297.806 1810.77 296.316C1814.02 294.691 1816.26 291.914 1817.48 287.985C1818.7 284.056 1819.31 278.638 1819.31 271.729V196.543H1851.82ZM1959.51 196.543H1992.02V325.171H1959.71L1923.14 270.713C1920.29 266.378 1917.92 262.72 1916.03 259.74C1914.13 256.759 1912.37 253.779 1910.74 250.799C1909.12 247.818 1907.29 244.296 1905.26 240.232L1904.65 241.045C1906.54 247.547 1907.69 253.644 1908.1 259.333C1908.51 264.887 1908.71 270.306 1908.71 275.59V325.171H1876.2V196.543H1908.51L1945.08 251.002C1947.93 255.201 1950.3 258.859 1952.2 261.975C1954.09 264.955 1955.85 267.936 1957.48 270.916C1959.1 273.896 1960.93 277.418 1962.97 281.482L1963.58 280.67C1962.22 274.98 1961.2 269.493 1960.53 264.21C1959.85 258.791 1959.51 253.44 1959.51 248.157V196.543ZM2042.91 325.171V223.976H2006.34V196.543H2112V223.976H2075.42V325.171H2042.91ZM2126.23 325.171V196.543H2221.74V222.96H2158.75V247.344H2213.41V273.761H2158.75V298.755H2221.74V325.171H2126.23ZM2270.47 325.171H2237.96V196.543H2299.32C2315.44 196.543 2327.16 200.201 2334.48 207.516C2341.93 214.696 2345.65 225.331 2345.65 239.419C2345.65 249.986 2343.01 259.062 2337.73 266.649C2332.45 274.099 2325.47 278.773 2316.8 280.67L2316.6 281.279C2319.98 283.447 2323.71 287.037 2327.77 292.049C2331.84 297.061 2335.83 302.548 2339.76 308.508C2343.82 314.334 2347.41 319.82 2350.53 324.968V325.171H2312.73L2290.79 292.659C2288.89 289.814 2287.33 287.782 2286.11 286.563C2285.03 285.343 2283.68 284.598 2282.05 284.327C2280.56 284.056 2278.12 283.921 2274.74 283.921H2270.47V325.171ZM2294.04 222.96H2270.47V257.504H2294.04C2300.81 257.504 2305.49 256.15 2308.06 253.44C2310.77 250.731 2312.12 246.328 2312.12 240.232C2312.12 234.136 2310.77 229.733 2308.06 227.024C2305.49 224.314 2300.81 222.96 2294.04 222.96Z" fill="#363636"/>
<path d="M652.817 82.5458C668.346 90.3171 680.153 103.938 685.642 120.412C691.131 136.887 689.852 154.868 682.087 170.4L566.026 402.434C562.191 410.13 556.876 416.993 550.384 422.632C543.892 428.27 536.352 432.571 528.195 435.291C520.038 438.01 511.424 439.092 502.848 438.477C494.272 437.861 485.901 435.56 478.216 431.704C462.721 423.91 450.953 410.284 445.498 393.819C440.043 377.355 441.347 359.398 449.123 343.894L565.052 111.993C572.792 96.4557 586.383 84.6268 602.84 79.1053C619.297 73.5837 637.272 74.8212 652.817 82.5458Z" fill="url(#paint0_linear_3_60)"/>
<path d="M445.581 82.5459C461.11 90.3172 472.917 103.938 478.406 120.413C483.894 136.887 482.616 154.868 474.85 170.4L358.833 402.434C354.99 410.127 349.668 416.988 343.171 422.623C336.675 428.258 329.132 432.558 320.973 435.277C312.813 437.995 304.199 439.079 295.62 438.465C287.042 437.852 278.669 435.555 270.979 431.704C263.292 427.86 256.436 422.54 250.805 416.047C245.173 409.554 240.876 402.015 238.158 393.861C235.44 385.707 234.354 377.098 234.964 368.524C235.573 359.951 237.865 351.582 241.709 343.894L357.726 111.993C361.559 104.288 366.872 97.4145 373.362 91.7643C379.852 86.1141 387.392 81.7983 395.551 79.0635C403.71 76.3288 412.328 75.2289 420.912 75.8264C429.497 76.4239 437.879 78.7072 445.581 82.5459Z" fill="url(#paint1_linear_3_60)"/>
<path d="M161.5 63.3593C120.907 63.3593 88 96.2664 88 136.859C88 177.452 120.907 210.359 161.5 210.359C202.093 210.359 235 177.452 235 136.859C235 96.2663 202.093 63.3593 161.5 63.3593Z" fill="url(#paint2_linear_3_60)"/>
<path d="M212.5 225.333C187.371 225.333 167 245.704 167 270.833C167 295.962 187.371 316.333 212.5 316.333C237.629 316.333 258 295.962 258 270.833C258 245.704 237.629 225.333 212.5 225.333Z" fill="url(#paint3_linear_3_60)"/>
<defs>
<linearGradient id="paint0_linear_3_60" x1="494.231" y1="88.9614" x2="587.38" y2="369.047" gradientUnits="userSpaceOnUse">
<stop stop-color="#00D2FF"/>
<stop offset="1" stop-color="#005FE4"/>
</linearGradient>
<linearGradient id="paint1_linear_3_60" x1="286.883" y1="88.927" x2="379.999" y2="369.059" gradientUnits="userSpaceOnUse">
<stop stop-color="#00D2FF"/>
<stop offset="1" stop-color="#005FE4"/>
</linearGradient>
<linearGradient id="paint2_linear_3_60" x1="119.002" y1="68.729" x2="146.11" y2="188.587" gradientUnits="userSpaceOnUse">
<stop stop-color="#00D2FF"/>
<stop offset="1" stop-color="#005FE4"/>
</linearGradient>
<linearGradient id="paint3_linear_3_60" x1="186.191" y1="228.657" x2="202.973" y2="302.855" gradientUnits="userSpaceOnUse">
<stop stop-color="#00D2FF"/>
<stop offset="1" stop-color="#005FE4"/>
</linearGradient>
</defs>
</svg>
